<svg version="1.0" xmlns="http://www.w3.org/2000/svg" width="400" height="400" viewBox="0 0 300 300"><path d="M194.5 75.9c-7 1.2-16.8 3.8-22.8 6.2-15.3 6.1-34.9 18-44.6 27.2-6.2 5.9-6.7 7.9-.8 3.7 16.9-12.1 22.4-15.7 31.7-20.4 10.7-5.5 17.5-8.1 29-11.3 9.7-2.6 35.6-2.4 46.2.5 20 5.4 30.1 15.7 35.4 35.7 2.7 10.3 2.7 55.9 0 65.5-4.3 15.5-11.3 24.8-22.9 30.5-12 5.8-18 7-37.2 7-14.7 0-18.2-.3-25.5-2.3-25.9-7-55-25.6-83.5-53.4l-6.1-5.8-26.3.2-26.4.3-5 13.2c-3.1 8.3-5.6 13.3-6.4 13.3-.8 0-1.1.5-.8 1 1.5 2.4 4.5-1.6 9.5-12.4l5.4-11.6 20.5.1c29.1 0 28.2-.2 38.8 10 16.9 16.3 37.7 31.2 55.8 39.9 18.7 9.1 31.2 12.2 49.5 12.1 40 0 60.4-15.3 65.7-49.1 1.9-12.2 1.2-48-1.1-58.5-4.8-21.5-18.6-35-40.6-40-8.5-1.9-29.9-2.8-37.5-1.6z"/><path d="M186.3 85c-10.3 2.4-23.5 7.6-34.4 13.6-8.3 4.6-27.2 17.5-28.4 19.4-1.1 1.7 1.1 1.1 4.9-1.5 2-1.4 3.9-2.5 4.2-2.5.2 0 4.1-2.3 8.7-5.2 28.5-17.9 54-24.5 80.2-20.8 19.9 2.9 31.5 10.9 36.5 25.4 4.3 12.5 5.2 50.8 1.5 66.4-5 21-18.6 30.2-47.5 31.9-31 1.7-62-12.9-101.8-47.9-6.7-5.9-13.4-11.1-14.8-11.4-1.4-.4-14.5-.3-29.1.1-25.6.7-26.7.8-28.8 2.9-2 2-11 27.4-10 28.4 1.1 1.2 2.8-2 7-13.7l4.7-12.8 13.6-.7c7.4-.3 20.2-.6 28.5-.6h14.9l9.7 9.1c15.6 14.8 38.2 31 54.6 39.2 8.5 4.2 21.6 8.5 31 10.3 10.1 1.8 27.2 1.4 38-.9 13.9-3.1 24.3-10.5 29.7-21 5.2-10.4 6.2-17.4 6.1-44.2 0-21.2-.3-24.9-2.1-31.8-4.6-17-14.4-26.4-32.2-31.2-10.3-2.7-34.3-3-44.7-.5z"/></svg>